#!OML:ASF H:\charlestonDancing\Project 1\Capture day 1\Session 1\femaleDancer.ASF
:FULLY-SPECIFIED
:DEGREES
35
root -0.576481 17.4335 4.90543 341.313 -86.8766 -328.644
lowerback 14.8773 -7.14481 1.46252
upperback 3.62535 -9.3503 -0.469906
thorax -4.71196 -4.66586 0.455127
lowerneck 4.68685 10.6309 8.77095
upperneck -1.29133 14.4826 -12.9067
head 0.462306 7.39146 -5.19988
rclavicle -3.97569e-015 -3.81667e-014
rhumerus -43.3456 -15.0324 -54.4071
rradius 94.9851
rwrist -45.3666
rhand -14.4689 -33.9543
rfingers 7.12502
rthumb 11.677 -63.6089
lclavicle -3.97569e-015 -3.81667e-014
lhumerus -11.7979 -9.28499 76.2388
lradius 58.8033
lwrist 2.9106
lhand -28.7262 4.50878
lfingers 7.12502
lthumb -2.08732 34.4783
rfemur -41.5251 -0.458924 23.3915
rtibia 54.4593
rfoot -15.4751 0.319504
rtoes -19.1526
lfemur -16.9933 7.71818 -25.4999
ltibia 48.6158
lfoot -12.2138 -4.2142
ltoes -22.1035
36
root -0.634535 17.3687 4.86066 349.75 -85.7215 -336.694
lowerback 14.0788 -7.33136 1.95615
upperback 3.33683 -9.51646 -0.315322
thorax -4.64173 -4.74822 0.301914
lowerneck 4.77634 10.5053 8.73283
upperneck -0.72602 14.3538 -12.5653
head 0.5706 7.31565 -5.08676
rclavicle 1.0297e-013 1.19271e-014
rhumerus -44.6462 -15.5131 -53.6487
rradius 95.5431
rwrist -45.7395
rhand -15.0599 -34.3606
rfingers 7.12502
rthumb 11.107 -64.0466
lclavicle 1.0297e-013 1.19271e-014
lhumerus -14.8574 -9.18507 77.716
lradius 56.2964
lwrist 2.67104
lhand -27.3624 5.29834
lfingers 7.12502
lthumb -0.770142 35.2767
rfemur -40.8352 -1.09668 23.7398
rtibia 53.3254
rfoot -17.4735 -0.558281
rtoes -17.083
lfemur -20.0988 8.01566 -25.2947
ltibia 53.494
lfoot -10.1673 -3.21916
ltoes -23.3062
37
root -0.708934 17.2868 4.82389 354.287 -85.1754 -341.538
lowerback 13.6593 -7.26357 2.47963
upperback 3.38263 -9.36406 -0.284094
thorax -4.4407 -4.68024 -0.0312755
lowerneck 4.88901 10.3017 8.88327
upperneck -0.339598 14.1199 -12.3669
head 0.6362 7.1933 -5.0544
rclavicle 5.64548e-014 -6.36111e-015
rhumerus -46.1971 -16.0598 -52.7724
rradius 96.3603
rwrist -46.1726
rhand -15.3859 -34.3759
rfingers 7.12502
rthumb 10.7925 -64.0786
lclavicle 5.64548e-014 -6.36111e-015
lhumerus -17.9271 -8.92583 78.9976
lradius 53.9127
lwrist 2.47662
lhand -25.6238 5.95819
lfingers 7.12502
lthumb 0.909063 35.936
rfemur -39.5729 -1.34546 24.204
rtibia 52.5038
rfoot -19.5212 -1.50792
rtoes -16.0167
lfemur -22.5907 8.71835 -24.9183
ltibia 58.818
lfoot -9.02015 -2.11349
ltoes -23.828
38
root -0.773926 17.1931 4.79404 356.606 -84.7955 -344.571
lowerback 13.7528 -7.13642 2.84773
upperback 3.5264 -9.14813 -0.251938
thorax -4.38378 -4.57892 -0.233582
lowerneck 4.83794 10.0928 8.90267
upperneck 0.00948434 13.8591 -12.2368
head 0.710418 7.05413 -5.01524
rclavicle 5.60573e-014 -5.56597e-015
rhumerus -47.803 -16.4813 -51.686
rradius 97.2861
rwrist -46.602
rhand -15.3495 -34.4863
rfingers 7.12502
rthumb 10.8277 -64.1871
lclavicle 5.60573e-014 -5.56597e-015
lhumerus -21.4031 -8.34525 80.2371
lradius 52.0234
lwrist 2.26942
lhand -24.115 6.78355
lfingers 7.12502
lthumb 2.36627 36.7502
rfemur -38.2229 -1.68288 24.5976
rtibia 52.1451
rfoot -21.3693 -2.30265
rtoes -16.0421
lfemur -24.7835 9.12188 -24.591
ltibia 64.4841
lfoot -9.33353 -0.505605
ltoes -23.7992
39
root -0.82762 17.1134 4.77406 362.817 -84.5214 -351.713
lowerback 14.1493 -6.9295 3.77555
upperback 3.74344 -8.7344 -0.0859945
thorax -4.46089 -4.38453 -0.60448
lowerneck 4.57303 9.79259 8.60519
upperneck 0.281662 13.4409 -11.9752
head 0.749693 6.83024 -4.88691
rclavicle -5.98342e-014 4.96962e-014
rhumerus -49.5354 -17.0737 -50.2163
rradius 98.2012
rwrist -46.9571
rhand -14.9746 -34.6639
rfingers 7.12502
rthumb 11.1893 -64.3455
lclavicle -5.98342e-014 4.96962e-014
lhumerus -25.1362 -7.60882 81.5639
lradius 50.4517
lwrist 1.83275
lhand -23.111 7.38883
lfingers 7.12502
lthumb 3.33593 37.3425
rfemur -36.863 -2.31144 25.5081
rtibia 51.9751
rfoot -22.6081 -2.74771
rtoes -17.0147
lfemur -26.8582 9.24374 -23.7595
ltibia 70.3335
lfoot -10.9836 1.91633
ltoes -24.0335
40
root -0.843011 17.0414 4.75082 370.321 -84.9891 -360.657
lowerback 15.5958 -6.47397 4.458
upperback 4.06107 -7.97922 0.10192
thorax -4.92543 -4.02515 -0.786301
lowerneck 4.39732 9.53319 8.45494
upperneck 0.306179 13.0777 -11.8824
head 0.731002 6.64262 -4.84007
rclavicle 4.45278e-014 2.14687e-014
rhumerus -51.113 -17.6634 -48.8628
rradius 99.0978
rwrist -47.1988
rhand -14.5167 -34.6431
rfingers 7.12502
rthumb 11.6308 -64.3003
lclavicle 4.45278e-014 2.14687e-014
lhumerus -29.025 -6.14093 82.5635
lradius 48.8378
lwrist 1.18984
lhand -22.9813 7.19721
lfingers 7.12502
lthumb 3.46117 37.1489
rfemur -35.2796 -2.14375 26.5393
rtibia 51.8609
rfoot -22.9998 -2.9274
rtoes -17.6836
lfemur -28.6046 9.81035 -22.6034
ltibia 76.3123
lfoot -13.3279 4.09045
ltoes -20.9073
41
root -0.86378 16.9882 4.74998 388.08 -85.2588 -380.24
lowerback 17.346 -6.24311 5.92846
upperback 4.57457 -7.36055 0.366017
thorax -5.4102 -3.74687 -1.29662
lowerneck 4.35761 9.46235 8.5825
upperneck 0.0979608 12.9773 -12.0472
head 0.685275 6.5967 -4.91502
rclavicle 2.16675e-014 -8.34896e-015
rhumerus -52.1418 -17.9921 -48.0172
rradius 99.8725
rwrist -47.419
rhand -14.2011 -34.6834
rfingers 7.12502
rthumb 11.9351 -64.3231
lclavicle 2.16675e-014 -8.34896e-015
lhumerus -33.1221 -3.63276 82.7992
lradius 47.1792
lwrist 0.37556
lhand -23.3384 7.2131
lfingers 7.12502
lthumb 3.11626 37.1701
rfemur -33.1003 -2.06627 28.2449
rtibia 51.5182
rfoot -23.1919 -2.27039
rtoes -15.6893
lfemur -29.8545 10.3375 -20.472
ltibia 82.1855
lfoot -15.5755 4.69126
ltoes -17.4039
42
root -0.873843 16.9483 4.7635 408.801 -84.6523 -402.323
lowerback 18.789 -6.24781 7.93525
upperback 4.96467 -6.91686 0.690904
thorax -5.88823 -3.56486 -2.04127
lowerneck 4.33217 9.47452 8.7888
upperneck -0.14989 12.9905 -12.2097
head 0.642555 6.60877 -4.99892
rclavicle 3.08116e-014 -2.94201e-014
rhumerus -52.8291 -18.1589 -47.5503
rradius 100.523
rwrist -47.6844
rhand -14.0834 -34.7523
rfingers 7.12502
rthumb 12.0487 -64.3854
lclavicle 3.08116e-014 -2.94201e-014
lhumerus -37.412 -0.540797 82.2554
lradius 45.458
lwrist -0.899335
lhand -23.8015 7.95208
lfingers 7.12502
lthumb 2.66909 37.9151
rfemur -31.4065 -2.19854 30.3457
rtibia 51.1093
rfoot -23.2018 -1.18126
rtoes -11.642
lfemur -31.7388 10.4672 -17.903
ltibia 87.7637
lfoot -17.025 4.04154
ltoes -17.299
43
root -0.874446 16.917 4.7763 423.103 -83.2249 -417.578
lowerback 19.9406 -6.38737 10.0775
upperback 5.24581 -6.5866 1.07291
thorax -6.30975 -3.44515 -2.80247
lowerneck 4.36924 9.49143 8.9292
upperneck -0.419805 13.0079 -12.1641
head 0.565466 6.62347 -5.01587
rclavicle -1.21259e-014 2.0276e-014
rhumerus -53.3388 -18.3244 -47.2927
rradius 101.042
rwrist -48.0019
rhand -14.0765 -34.4096
rfingers 7.12502
rthumb 12.0554 -64.0424
lclavicle -1.21259e-014 2.0276e-014
lhumerus -41.7259 2.7915 81.0303
lradius 43.5678
lwrist -2.94205
lhand -24.481 8.89448
lfingers 7.12502
lthumb 2.0128 38.8647
rfemur -30.0943 -2.41689 32.6571
rtibia 50.5478
rfoot -23.0612 -0.528176
rtoes -9.86707
lfemur -34.2409 10.232 -15.0684
ltibia 92.9163
lfoot -17.8905 2.00542
ltoes -17.5836
44
root -0.880953 16.9314 4.77657 421.604 -83.9774 -416.606
lowerback 20.6478 -6.16992 9.28812
upperback 5.47453 -6.42405 0.834646
thorax -6.35842 -3.35954 -2.62549
lowerneck 4.47727 9.42048 8.91834
upperneck -0.763457 12.899 -11.9333
head 0.419415 6.576 -4.96679
rclavicle -3.91606e-014 4.45278e-014
rhumerus -53.7074 -18.7508 -47.037
rradius 101.272
rwrist -48.2151
rhand -14.1924 -33.9462
rfingers 7.12502
rthumb 11.9436 -63.5855
lclavicle -3.91606e-014 4.45278e-014
lhumerus -45.8364 6.05467 79.3221
lradius 41.4374
lwrist -5.7621
lhand -24.937 10.0897
lfingers 7.12502
lthumb 1.57237 40.0636
rfemur -29.2824 -2.6417 31.8933
rtibia 50.09
rfoot -22.8777 -0.338465
rtoes -10.4507
lfemur -36.858 9.06656 -15.6544
ltibia 96.9239
lfoot -18.4417 0.0166083
ltoes -18.5374
